<?xml version="1.0" standalone="no"?>
<!DOCTYPE svg PUBLIC "-//W3C//DTD SVG 20010904//EN"
 "http://www.w3.org/TR/2001/REC-SVG-20010904/DTD/svg10.dtd">
<svg version="1.0" xmlns="http://www.w3.org/2000/svg"
 width="221.000000pt" height="215.000000pt" viewBox="0 0 221.000000 215.000000"
 preserveAspectRatio="xMidYMid meet">
<metadata>
Created by potrace 1.10, written by Peter Selinger 2001-2011
</metadata>
<g transform="translate(0.000000,215.000000) scale(0.100000,-0.100000)"
fill="#000000" stroke="none">
<path d="M828 1901 c-169 -58 -310 -110 -314 -113 -3 -4 2 -27 11 -52 15 -39
20 -44 36 -36 10 6 22 10 26 10 8 0 53 -123 53 -142 0 -4 -91 -37 -202 -74
-165 -55 -209 -73 -235 -99 -57 -57 -56 -66 66 -420 94 -271 115 -324 141
-347 17 -16 38 -28 48 -28 14 0 30 -36 76 -172 33 -95 66 -188 74 -206 15 -34
56 -62 90 -62 16 0 329 106 1245 422 69 24 97 60 96 123 0 23 -27 115 -63 215
-57 158 -62 177 -48 192 8 10 17 39 19 65 4 41 -11 90 -105 353 -77 215 -117
313 -135 331 -46 48 -68 45 -301 -35 l-214 -74 -25 71 c-27 76 -27 87 4 87 10
0 19 6 19 14 0 26 -30 86 -43 85 -6 0 -150 -49 -319 -108z m302 42 c0 -5 -35
-18 -78 -31 -117 -36 -362 -120 -410 -142 -46 -21 -72 -25 -72 -11 0 5 76 34
169 65 93 32 212 73 263 91 93 34 128 42 128 28z m13 -126 l24 -73 -246 -84
c-135 -47 -248 -84 -251 -83 -8 3 -50 136 -44 142 5 5 472 169 486 170 3 1 17
-32 31 -72z m541 31 c20 -17 51 -93 127 -308 127 -357 123 -343 109 -386 -14
-41 -31 -51 -169 -98 -73 -25 -103 -32 -106 -23 -3 7 -11 30 -18 51 -8 22 -20
44 -28 49 -19 12 -169 -40 -177 -61 -3 -9 2 -38 12 -65 10 -27 16 -51 14 -53
-6 -5 -498 -174 -508 -174 -4 0 -13 21 -20 46 -21 74 -28 77 -118 47 -106 -35
-108 -38 -86 -107 10 -31 16 -57 13 -59 -2 -2 -59 -23 -126 -47 -111 -38 -126
-41 -153 -30 -17 7 -36 22 -42 33 -21 40 -218 621 -218 645 0 45 31 81 90 103
30 12 231 81 445 154 215 73 500 171 635 218 135 47 257 85 272 86 15 1 38 -9
52 -21z m-62 -828 c15 -46 28 -87 28 -91 0 -6 -96 -45 -128 -51 -9 -2 -25 29
-47 91 l-33 93 32 13 c60 24 91 34 105 32 8 -1 26 -38 43 -87z m278 48 c0 -7
27 -89 61 -183 64 -179 68 -215 30 -249 -10 -9 -303 -115 -652 -235 -585 -201
-636 -218 -664 -207 -37 15 -41 23 -113 234 l-59 171 117 40 c64 23 120 41
123 41 3 0 8 -13 12 -29 11 -52 26 -56 114 -26 97 32 107 42 90 89 -7 20 -11
37 -8 39 2 2 118 42 257 90 172 58 254 82 257 74 28 -79 28 -79 129 -43 87 30
91 35 76 82 -7 21 -9 40 -4 42 22 9 220 79 227 81 4 0 7 -5 7 -11z m-990 -294
c18 -52 30 -97 29 -98 -15 -13 -142 -46 -149 -40 -13 16 -62 175 -55 182 6 6
121 49 137 51 3 1 21 -42 38 -95z"/>
<path d="M1642 1778 c100 -273 188 -533 188 -556 0 -43 -35 -77 -97 -97 -29
-9 -53 -21 -53 -27 0 -6 8 -7 18 -3 9 4 36 14 58 22 61 21 89 55 88 106 -1 46
-183 567 -198 567 -4 0 -6 -6 -4 -12z"/>
<path d="M346 1028 c101 -300 116 -328 173 -328 31 0 140 35 155 50 15 15 0
12 -79 -16 -68 -24 -74 -25 -103 -10 -32 17 -46 50 -166 414 -32 94 -62 172
-67 172 -4 0 35 -127 87 -282z"/>
<path d="M1162 930 c-178 -63 -244 -90 -182 -77 42 8 394 130 405 139 22 19
-42 2 -223 -62z"/>
<path d="M1542 988 c12 -35 23 -57 26 -50 5 16 -27 112 -38 112 -5 0 1 -28 12
-62z"/>
<path d="M810 805 c0 -20 34 -115 42 -115 10 0 11 -2 -8 56 -16 46 -34 79 -34
59z"/>
</g>
</svg>
