<svg width="86" height="58" viewBox="0 0 86 58" fill="none" xmlns="http://www.w3.org/2000/svg">
<path fill-rule="evenodd" clip-rule="evenodd" d="M56.8532 1.30431C51.9251 3.76318 49.3536 6.22078 44.2419 13.3573C38.632 21.1888 34.8714 22.4359 25.3816 19.6111C15.6196 16.705 12.7133 16.9979 8.45805 21.315C7.05821 22.7354 5.75576 23.6034 3.53314 24.5981C-1.29947 26.7606 -1.18361 27.9865 3.93641 28.8643C9.80378 29.8701 10.6224 30.3898 12.8836 34.5443C19.4601 46.6289 27.3193 50.8359 43.442 50.9014L51.131 50.9327L53.098 52.1789C58.8852 55.8457 66.3522 57.9601 73.6045 57.9861L77.4813 58L81.7406 53.657C84.2481 51.1001 86 49.0271 86 48.6168C86 46.8143 79.9375 44.6299 71.1581 43.2689C54.6026 40.7025 54.2063 40.5776 57.16 38.8573C60.341 37.0047 62.8733 33.2057 63.9428 28.6805C64.2433 27.4099 64.7672 25.1709 65.1071 23.7052C66.1727 19.1091 68.1137 15.2038 71.4019 11.0386C73.8531 7.93383 73.6357 7.0014 70.4607 7.00235C68.4208 7.00298 63.4469 7.81427 61.9261 8.39467C59.6446 9.26511 59.4648 8.42314 61.0683 4.37521C62.8915 -0.227185 61.6848 -1.10648 56.8532 1.30431ZM58.1053 4.06998C58.1079 5.60622 56.4929 10.5651 55.9321 10.7419C55.567 10.857 52.979 12.4581 50.1812 14.2992C47.3837 16.1407 45.029 17.5821 44.9491 17.5027C44.4994 17.0561 50.9152 8.80712 53.1731 6.92865C56.0068 4.57131 58.1041 3.35579 58.1053 4.06998ZM68.2063 10.0508C68.3202 10.164 67.9612 10.9238 67.4083 11.7388C64.7856 15.6055 63.3575 19.1939 61.8675 25.6596C60.2614 32.6288 58.2922 35.5507 53.69 37.7936L51.7316 38.7481L50.5991 37.8012C49.3963 36.7953 49.191 36.7302 48.2991 37.0702C47.4222 37.4045 47.6304 38.756 48.717 39.7831C51.4827 42.3972 56.2128 43.7671 69.1914 45.7139C75.4401 46.6511 78.8331 47.4105 81.2435 48.4112L82.5637 48.9594L79.722 51.8677C78.1592 53.4675 76.7193 54.9111 76.5226 55.0759C75.159 56.2196 64.4794 54.5581 59.4081 52.4133C55.6485 50.8236 54.9374 50.3099 55.904 49.8814C56.9127 49.4338 57.2456 48.2869 56.5635 47.6091C56.0794 47.128 55.5893 47.1325 51.9671 47.6512C46.7099 48.404 38.2504 48.4125 34.5754 47.6689C24.9767 45.7268 19.8856 41.8216 14.9846 32.6414C13.2566 29.4051 11.9825 28.2681 8.96413 27.2701C6.45218 26.4392 6.07851 26.0461 7.47103 25.6988C7.94687 25.5802 9.11373 24.6237 10.0638 23.5736C13.2865 20.0121 15.9099 19.6377 23.0202 21.7246C34.9039 25.2123 39.8078 24.4017 50.7735 17.137C56.4601 13.3697 60.4686 11.4216 64.3069 10.56C67.6655 9.80598 67.9256 9.77182 68.2063 10.0508Z" fill="black"/>
</svg>
