<?xml version="1.0" standalone="no"?>
<!DOCTYPE svg PUBLIC "-//W3C//DTD SVG 20010904//EN"
 "http://www.w3.org/TR/2001/REC-SVG-20010904/DTD/svg10.dtd">
<svg version="1.0" xmlns="http://www.w3.org/2000/svg"
 width="196.000000pt" height="212.000000pt" viewBox="0 0 196.000000 212.000000"
 preserveAspectRatio="xMidYMid meet">
<metadata>
Created by potrace 1.10, written by Peter Selinger 2001-2011
</metadata>
<g transform="translate(0.000000,212.000000) scale(0.100000,-0.100000)"
fill="#000000" stroke="none">
<path d="M875 1864 c-297 -51 -544 -94 -548 -94 -8 0 0 -116 9 -131 2 -4 30
-1 63 6 l58 12 12 -56 c7 -31 34 -101 61 -156 75 -154 175 -254 335 -336 93
-48 94 -60 13 -148 -80 -89 -132 -175 -165 -276 -24 -71 -27 -96 -27 -222 l-1
-141 -29 -6 c-16 -3 -39 -6 -52 -6 -12 0 -26 -4 -29 -10 -7 -11 4 -102 15
-120 5 -9 147 12 571 85 310 53 565 98 568 100 3 4 -16 125 -22 131 -1 2 -20
-1 -42 -6 -74 -18 -82 -15 -87 32 -6 53 -45 151 -89 224 -72 118 -169 206
-304 275 -92 47 -95 64 -24 139 149 160 214 329 207 542 l-3 108 35 6 c85 13
83 12 76 52 -16 89 -17 92 -39 91 -12 0 -265 -43 -562 -95z m550 22 c0 -22
-50 -44 -101 -45 -17 -1 -213 -33 -435 -72 -222 -39 -430 -74 -462 -76 -57 -5
-59 -4 -55 19 2 14 11 24 23 26 11 2 234 41 495 87 261 46 489 82 505 81 22
-1 30 -6 30 -20z m-80 -151 c8 -76 -8 -203 -37 -290 -27 -84 -85 -178 -162
-263 -95 -105 -90 -123 54 -198 114 -59 233 -181 292 -301 43 -84 78 -196 66
-208 -10 -10 -839 -148 -846 -141 -14 15 -7 229 11 296 27 104 91 220 167 304
38 41 71 84 75 96 11 34 -19 66 -105 111 -155 80 -285 230 -344 397 -37 103
-35 119 11 128 157 30 763 132 785 133 25 1 27 -2 33 -64z m333 -1317 c-3 -23
-40 -31 -408 -93 -19 -3 -167 -28 -329 -56 -162 -27 -300 -48 -308 -45 -7 3
-13 14 -13 24 0 21 31 30 205 56 55 9 111 18 125 20 14 3 149 26 300 51 151
25 284 50 295 55 11 5 46 9 78 9 55 1 58 0 55 -21z"/>
<path d="M945 1403 c-120 -2 -214 -8 -219 -13 -7 -7 5 -26 34 -56 52 -53 101
-88 186 -133 l62 -33 41 44 c58 61 135 174 127 187 -4 6 -10 10 -14 9 -4 -2
-101 -4 -217 -5z m195 -30 c-1 -11 -50 -75 -98 -127 l-41 -45 -73 40 c-41 22
-96 59 -123 82 l-49 42 34 6 c51 9 350 10 350 2z"/>
<path d="M987 822 c-96 -106 -167 -264 -167 -370 0 -30 3 -34 23 -29 12 3 148
27 302 53 154 26 282 49 284 51 9 7 -37 88 -84 151 -53 71 -117 123 -221 180
l-70 38 -67 -74z m147 1 c85 -45 190 -145 234 -223 l31 -55 -276 -47 c-152
-26 -278 -46 -279 -45 -7 10 32 145 59 202 27 56 138 202 156 205 1 0 35 -17
75 -37z"/>
</g>
</svg>
