<?xml version="1.0" standalone="no"?>
<!DOCTYPE svg PUBLIC "-//W3C//DTD SVG 20010904//EN"
 "http://www.w3.org/TR/2001/REC-SVG-20010904/DTD/svg10.dtd">
<svg version="1.0" xmlns="http://www.w3.org/2000/svg"
 width="300.000000pt" height="357.000000pt" viewBox="0 0 300.000000 357.000000"
 preserveAspectRatio="xMidYMid meet">
<metadata>
Created by potrace 1.10, written by Peter Selinger 2001-2011
</metadata>
<g transform="translate(0.000000,357.000000) scale(0.100000,-0.100000)"
fill="#000000" stroke="none">
<path d="M1736 3174 c-34 -11 -65 -32 -104 -71 l-55 -55 -131 36 c-72 20 -137
36 -143 36 -7 0 -15 -16 -19 -35 -3 -19 -8 -35 -10 -35 -2 0 -95 25 -205 56
-110 30 -203 53 -206 50 -3 -3 -103 -359 -223 -793 -119 -433 -261 -947 -315
-1140 -53 -194 -95 -358 -92 -365 2 -8 288 -92 668 -197 365 -101 792 -219
948 -263 156 -43 287 -75 291 -71 4 4 14 35 22 68 13 52 413 1500 561 2033 30
105 51 195 48 200 -3 5 -101 35 -217 67 l-212 58 5 38 5 37 -68 21 c-38 11
-103 30 -145 42 l-76 21 -6 53 c-10 95 -54 157 -139 195 -64 28 -123 33 -182
14z m179 -58 c29 -15 60 -38 69 -51 17 -26 46 -125 40 -136 -3 -6 -384 98
-394 107 -2 3 14 23 36 45 74 73 148 84 249 35z m-830 -56 c83 -23 158 -43
168 -46 14 -4 17 -17 17 -63 0 -46 6 -66 28 -102 38 -59 107 -95 297 -154 386
-120 544 -144 632 -98 40 22 83 69 96 105 5 14 11 16 29 9 13 -5 102 -30 198
-56 96 -27 176 -49 178 -50 1 -1 -49 -188 -112 -416 -216 -781 -405 -1464
-453 -1641 -26 -98 -52 -178 -56 -178 -5 0 -340 92 -745 204 -406 113 -817
226 -915 253 -139 37 -177 51 -174 63 3 8 89 319 191 690 103 371 235 846 292
1055 150 541 131 486 157 475 12 -5 90 -28 172 -50z m690 -109 c566 -158 535
-149 535 -169 -1 -32 -37 -98 -69 -125 -83 -70 -188 -59 -581 59 -244 74 -304
104 -337 169 -25 48 -17 199 10 190 7 -2 206 -58 442 -124z"/>
<path d="M940 2283 c0 -32 54 -163 67 -163 19 0 163 121 163 136 0 27 -34 13
-91 -36 -59 -51 -69 -57 -69 -40 0 5 -9 34 -21 65 -20 53 -49 75 -49 38z"/>
<path d="M1280 2102 c0 -9 920 -265 928 -257 3 3 3 7 1 9 -5 5 -907 256 -920
256 -5 0 -9 -3 -9 -8z"/>
<path d="M836 1922 c-7 -12 57 -172 69 -172 15 0 160 120 163 136 7 28 -32 13
-94 -37 -35 -28 -64 -46 -64 -40 0 6 -9 35 -21 66 -19 50 -40 68 -53 47z"/>
<path d="M1190 1751 c0 -11 -23 -4 508 -151 350 -97 431 -116 411 -96 -2 2
-202 59 -444 126 -242 66 -448 123 -457 126 -10 3 -18 1 -18 -5z"/>
<path d="M736 1552 c-6 -10 46 -148 62 -164 8 -8 33 8 91 56 45 37 81 72 81
77 0 28 -35 16 -88 -30 -32 -28 -61 -51 -64 -51 -3 0 -16 27 -28 60 -20 55
-40 74 -54 52z"/>
<path d="M1090 1402 c0 -6 8 -13 18 -16 104 -32 887 -246 900 -246 48 0 -43
28 -448 140 -245 67 -451 125 -457 127 -7 3 -13 0 -13 -5z"/>
</g>
</svg>
