<?xml version="1.0" standalone="no"?>
<!DOCTYPE svg PUBLIC "-//W3C//DTD SVG 20010904//EN"
 "http://www.w3.org/TR/2001/REC-SVG-20010904/DTD/svg10.dtd">
<svg version="1.0" xmlns="http://www.w3.org/2000/svg"
 width="626.000000pt" height="417.000000pt" viewBox="0 0 626.000000 417.000000"
 preserveAspectRatio="xMidYMid meet">

<g transform="translate(0.000000,417.000000) scale(0.100000,-0.100000)"
fill="#000000" stroke="none">
<path d="M3600 3435 c-229 -37 -483 -173 -581 -310 -28 -38 -50 -55 -124 -90
-99 -47 -161 -65 -227 -65 -43 0 -108 30 -108 50 0 5 -7 10 -16 10 -28 0 -13
-94 20 -129 31 -32 33 -41 8 -41 -32 0 -136 -69 -187 -124 -50 -54 -51 -55
-132 -66 -196 -26 -396 -130 -571 -295 -63 -59 -72 -64 -143 -78 -182 -38
-353 -50 -619 -43 -167 4 -269 2 -293 -5 -93 -25 -153 -124 -164 -268 -5 -73
11 -488 24 -611 l6 -60 -39 0 c-41 0 -73 -14 -62 -26 4 -3 89 1 190 10 237 21
973 85 1017 89 32 2 35 0 51 -49 38 -111 83 -174 154 -215 48 -27 58 -29 159
-29 103 0 274 16 475 43 l92 13 133 -38 c128 -37 134 -38 207 -28 117 17 216
37 485 101 138 32 260 61 273 64 19 5 22 2 22 -29 0 -26 -5 -35 -22 -40 -50
-13 8 -26 262 -59 146 -20 409 -54 585 -78 l320 -42 280 57 c194 40 284 62
293 74 19 25 15 115 -7 143 -12 16 -16 30 -10 44 11 29 11 104 -2 148 -7 28
-18 42 -40 51 l-30 12 22 20 c32 28 59 89 66 144 7 64 -24 130 -81 172 -59 44
-122 72 -506 228 -189 78 -346 143 -348 145 -2 1 6 33 17 70 23 74 27 149 10
208 -13 47 -61 103 -78 92 -9 -5 -6 -14 13 -34 13 -14 30 -39 35 -54 18 -46
13 -152 -9 -214 -46 -130 -160 -292 -227 -319 -33 -14 -130 -18 -170 -8 -45
12 -19 113 51 198 44 55 56 79 56 116 0 37 -15 32 -23 -8 -3 -16 -24 -51 -45
-79 -45 -56 -82 -124 -82 -149 0 -9 -10 -19 -22 -22 -13 -3 -63 -26 -112 -50
-67 -34 -113 -49 -190 -62 -56 -10 -160 -28 -232 -41 -116 -21 -136 -22 -188
-10 -119 27 -160 102 -160 291 0 119 18 194 66 279 19 35 26 57 20 63 -13 13
-66 -77 -90 -152 -13 -42 -17 -90 -17 -203 l0 -148 -25 -5 c-43 -10 -50 -13
-50 -25 0 -7 15 -9 49 -4 41 6 49 4 54 -12 2 -10 8 -25 11 -34 10 -22 -23 -30
-60 -14 -108 45 -189 266 -166 450 6 45 20 106 32 137 18 49 25 57 53 62 18 3
79 30 137 60 85 43 104 57 102 73 -1 11 4 26 12 33 13 10 17 8 26 -14 16 -43
30 -30 23 23 -9 75 3 116 46 161 33 35 43 40 84 40 38 0 49 -5 71 -31 15 -17
26 -43 26 -59 0 -30 14 -47 25 -30 11 18 -7 81 -32 110 -14 17 -38 32 -59 36
-19 3 -34 10 -34 14 0 4 31 37 69 73 124 116 292 178 426 157 130 -21 234 -78
334 -185 67 -72 142 -210 162 -300 13 -57 37 -72 30 -19 -6 51 -57 179 -96
239 -43 69 -125 157 -171 185 -31 20 -32 22 -31 93 1 121 -40 175 -163 212
-77 22 -237 27 -340 10z m309 -30 c86 -21 129 -49 152 -99 19 -43 25 -121 10
-130 -5 -3 -40 6 -77 20 -84 32 -199 42 -275 24 -91 -20 -212 -86 -286 -155
-38 -34 -74 -74 -82 -88 -7 -13 -24 -30 -37 -36 -33 -15 -80 -84 -89 -128 -8
-47 -63 -106 -130 -140 -49 -26 -51 -26 -215 -19 -90 4 -167 9 -169 12 -11 10
25 23 79 29 104 11 130 17 130 27 0 20 -170 0 -225 -27 -47 -22 -57 -23 -182
-18 -73 3 -133 9 -133 14 0 13 103 100 142 120 21 11 82 31 136 45 109 29 138
42 125 55 -5 5 -25 2 -48 -6 -63 -22 -109 -19 -144 11 -34 28 -43 61 -13 49 9
-4 36 -12 58 -18 54 -13 157 10 260 58 60 27 75 31 69 17 -4 -9 -9 -41 -12
-69 -7 -69 11 -71 52 -5 16 26 67 84 112 129 46 46 83 85 83 88 0 31 -113 -62
-176 -145 -46 -61 -55 -51 -20 25 74 163 342 323 616 368 63 11 230 6 289 -8z
m-1139 -770 c96 -7 177 -14 179 -14 3 -1 -7 -13 -21 -28 -102 -107 -118 -384
-34 -568 48 -106 118 -161 194 -152 43 5 92 -8 92 -23 0 -12 -57 -20 -135 -19
-98 0 -355 -77 -370 -110 -11 -25 -6 -25 -203 6 -86 13 -103 19 -99 32 3 9 17
57 32 106 16 53 29 126 32 177 5 75 2 97 -17 150 -40 111 -148 252 -224 293
-36 20 -66 11 -31 -9 37 -20 143 -133 178 -187 53 -83 72 -144 71 -224 -1 -65
-25 -177 -57 -270 l-14 -40 -134 -1 c-138 -1 -190 -9 -281 -44 -63 -24 -92
-45 -84 -59 4 -6 19 -3 39 10 100 61 301 84 487 55 234 -37 407 -57 443 -52
32 5 37 4 37 -14 0 -53 92 -53 231 -1 107 40 179 59 179 46 0 -4 -15 -33 -34
-64 -18 -31 -42 -78 -52 -105 -17 -47 -17 -49 2 -63 43 -32 97 2 170 109 17
25 47 57 65 71 78 58 168 -9 177 -132 5 -73 -12 -129 -41 -136 -12 -3 -96 -23
-187 -45 -461 -110 -1283 -233 -1448 -217 -136 14 -216 117 -267 344 -37 163
-51 346 -37 477 12 109 8 144 -12 110 -5 -11 -12 -92 -14 -184 -4 -155 2 -223
34 -411 l6 -36 -123 -12 c-386 -35 -582 -52 -589 -49 -4 2 35 57 87 123 52 66
193 252 314 413 227 301 351 443 477 543 131 105 277 177 411 204 88 17 353
18 571 0z m236 -30 c-20 -15 -36 -19 -36 -10 0 5 38 23 50 24 3 0 -4 -6 -14
-14z m-1457 -364 c-53 -66 -206 -266 -331 -433 -73 -97 -184 -241 -246 -321
l-112 -144 -165 -13 c-91 -7 -168 -10 -171 -7 -15 14 -26 218 -28 472 l-1 270
28 57 c19 38 40 64 65 80 37 23 41 23 372 25 280 1 354 4 450 21 63 10 126 20
139 21 l24 1 -24 -29z m3102 -127 c129 -53 235 -97 237 -98 1 -2 -78 -4 -175
-4 -98 -1 -239 -8 -313 -16 -74 -7 -136 -12 -138 -11 -2 2 16 28 40 57 25 30
59 80 77 111 18 31 34 57 35 57 2 0 108 -43 237 -96z m-681 -114 c0 -5 -5 -10
-11 -10 -5 0 -7 5 -4 10 3 6 8 10 11 10 2 0 4 -4 4 -10z m1041 -43 c152 -40
281 -114 312 -180 35 -72 14 -159 -53 -222 l-31 -30 -368 53 c-202 29 -405 55
-452 58 -46 2 -147 9 -224 14 -77 5 -156 10 -175 10 l-35 0 -1 73 c-1 55 -7
86 -27 130 -14 31 -27 61 -29 65 -2 4 58 10 132 13 114 5 239 16 495 43 22 2
112 3 200 1 130 -3 178 -8 256 -28z m-1098 6 c-7 -2 -19 -2 -25 0 -7 3 -2 5
12 5 14 0 19 -2 13 -5z m7 -83 c19 -38 50 -140 50 -167 0 -9 -15 -13 -42 -13
-24 0 -68 -7 -98 -15 -57 -15 -203 -20 -284 -9 -39 6 -46 10 -41 25 10 30 -17
23 -87 -23 -45 -31 -75 -61 -106 -108 -48 -74 -66 -90 -99 -90 -31 0 -29 9 14
96 56 112 100 165 162 196 63 32 65 34 57 46 -8 13 -114 -38 -140 -67 -11 -11
-31 -21 -45 -21 -14 0 -91 -23 -171 -50 -107 -37 -154 -49 -177 -45 -18 3 -33
11 -33 18 0 12 173 114 251 149 21 9 85 22 141 28 57 6 173 25 258 41 145 28
262 45 337 48 28 1 35 -4 53 -39z m-860 -77 c0 -12 -139 -86 -185 -100 -56
-16 -137 -16 -160 1 -20 14 -16 16 220 87 63 18 125 24 125 12z m858 -143 c9
-5 105 -16 212 -23 107 -8 188 -16 180 -19 -8 -3 -125 -20 -259 -37 -134 -17
-246 -33 -248 -35 -9 -9 8 -26 26 -26 13 0 20 -10 24 -37 4 -20 4 -39 2 -42
-11 -10 -112 -18 -175 -13 l-65 4 0 62 c-1 52 -14 97 -42 146 -2 3 38 4 89 3
58 -2 114 2 148 11 69 17 86 18 108 6z m905 -102 c202 -28 367 -54 367 -57 0
-3 -140 -28 -310 -55 l-311 -49 -307 62 c-289 58 -368 78 -332 81 8 1 123 16
255 34 132 18 247 34 255 35 8 1 180 -22 383 -51z m-622 -113 c173 -35 324
-67 337 -70 21 -5 22 -11 22 -88 0 -45 -4 -87 -8 -94 -5 -8 -96 7 -336 56
l-329 67 -3 97 c-2 53 -1 97 0 97 2 0 145 -29 317 -65z m1120 18 c10 -26 9
-156 -1 -167 -5 -4 -696 -116 -722 -116 -12 0 -15 16 -14 95 1 52 1 95 1 96 0
0 698 115 718 118 4 1 12 -11 18 -26z m-1461 -83 c0 -34 1 -34 -145 -50 -101
-11 -140 -25 -97 -36 12 -4 22 -10 22 -14 0 -19 -58 -15 -133 10 l-82 27 40
11 c22 6 57 14 78 18 27 4 42 14 49 30 10 22 17 24 122 27 61 1 119 4 129 5
13 1 17 -5 17 -28z m-30 -81 c11 -7 4 -8 -25 -3 -50 8 -58 14 -19 14 16 0 36
-5 44 -11z m-379 -21 c44 -11 77 -24 74 -27 -10 -9 -446 -109 -575 -131 -69
-12 -141 -20 -160 -17 -40 5 -183 48 -178 53 2 1 84 17 183 34 200 35 517 99
524 106 10 9 57 3 132 -18z m544 -33 c154 -19 348 -48 430 -66 101 -21 161
-29 188 -25 22 4 66 4 98 0 l59 -7 0 -58 c0 -41 -4 -59 -13 -59 -19 0 -1070
140 -1072 143 -1 1 -5 28 -9 60 -6 56 -6 57 16 52 13 -3 149 -21 303 -40z
m1353 -52 l-3 -57 -260 -53 c-143 -29 -266 -53 -272 -53 -9 0 -13 18 -13 55 0
51 2 55 28 62 66 16 479 101 500 102 22 1 23 -2 20 -56z m-473 -9 c-53 -14
-103 -19 -91 -7 7 8 78 20 116 21 14 0 3 -6 -25 -14z"/>
<path d="M3535 3317 c-108 -44 -169 -81 -234 -141 -54 -51 -101 -131 -101
-173 0 -32 18 -29 26 5 29 120 163 232 353 297 36 12 67 27 69 33 6 20 -29 13
-113 -21z"/>
<path d="M3350 2814 c-7 -19 -9 -38 -5 -42 10 -10 35 29 35 55 0 35 -17 28
-30 -13z"/>
<path d="M3620 2763 c0 -34 47 -119 81 -147 47 -40 66 -45 200 -56 130 -11
181 -26 199 -60 11 -21 10 -37 -6 -104 -12 -51 19 -24 34 29 12 42 12 53 -2
81 -8 18 -29 40 -45 49 -35 18 -142 35 -224 35 -32 0 -72 6 -90 14 -45 18 -95
79 -109 132 -12 43 -38 62 -38 27z"/>
<path d="M3520 2738 c0 -40 76 -108 119 -108 23 0 9 19 -26 37 -23 11 -44 31
-53 50 -15 32 -40 45 -40 21z"/>
<path d="M4890 2533 c-8 -3 -24 -14 -36 -25 -20 -18 -22 -18 -52 -1 -40 23
-79 10 -105 -35 l-19 -33 26 -50 c14 -28 26 -52 26 -54 0 -1 -22 -12 -49 -24
-36 -15 -70 -21 -125 -21 -81 0 -93 -9 -49 -37 19 -13 47 -18 98 -18 79 0 195
31 195 52 0 17 -4 16 -70 -7 -70 -25 -126 -26 -60 -2 100 37 106 48 63 113
-25 38 -26 43 -12 67 17 31 59 41 79 18 17 -22 28 -20 66 9 40 30 77 32 104 5
45 -45 45 -87 0 -150 -14 -20 -18 -37 -14 -59 13 -64 -55 -95 -96 -44 -14 18
-24 23 -31 16 -7 -7 -3 -19 14 -39 52 -60 156 -16 141 60 -4 25 0 41 20 71 32
47 34 98 4 141 -32 46 -74 63 -118 47z"/>
<path d="M3688 2524 c-4 -3 11 -23 32 -44 21 -21 44 -57 51 -79 14 -47 44 -59
33 -13 -10 42 -31 77 -64 111 -32 31 -42 36 -52 25z"/>
<path d="M3543 2398 c6 -42 30 -83 60 -102 29 -18 32 4 4 30 -15 14 -32 45
-38 69 -15 57 -34 60 -26 3z"/>
<path d="M3887 2193 c-4 -3 7 -21 23 -40 19 -21 30 -45 30 -63 0 -33 15 -48
24 -24 8 20 -3 62 -22 92 -17 26 -46 44 -55 35z"/>
<path d="M3642 2173 c-20 -9 -41 -32 -53 -56 -18 -33 -24 -38 -47 -34 -15 2
-35 8 -44 12 -29 12 -22 -20 7 -33 55 -25 87 -11 113 50 8 19 25 32 62 45 27
10 50 21 50 25 0 14 -54 8 -88 -9z"/>
<path d="M3297 2123 c-20 -20 5 -105 42 -142 25 -25 79 -28 87 -6 11 28 -7 69
-50 112 -41 41 -64 51 -79 36z m103 -118 c0 -8 -9 -15 -19 -15 -23 0 -61 57
-61 91 0 22 3 21 40 -18 22 -23 40 -49 40 -58z"/>
<path d="M3726 2103 c-24 -25 29 -113 68 -113 24 0 19 14 -14 38 -19 14 -30
32 -30 47 0 25 -12 39 -24 28z"/>
<path d="M2069 1030 c-1 -11 -2 -25 -3 -31 -1 -18 67 -32 558 -114 285 -48
462 -73 485 -70 101 16 103 21 24 58 -48 23 -139 41 -511 102 -249 41 -475 75
-503 75 -42 0 -49 -3 -50 -20z m61 -20 c0 -5 -6 -10 -14 -10 -8 0 -18 5 -21
10 -3 6 3 10 14 10 12 0 21 -4 21 -10z m487 -60 c429 -71 493 -84 493 -101 0
-17 -65 -9 -505 66 -243 41 -445 75 -449 75 -3 0 -6 7 -6 15 0 8 9 15 20 15
10 0 212 -32 447 -70z"/>
<path d="M5545 945 c-165 -24 -1060 -152 -1989 -284 -929 -133 -1692 -243
-1694 -246 -3 -3 -1 -9 4 -13 5 -5 908 120 2007 277 1502 214 1997 288 1997
298 0 16 27 19 -325 -32z"/>
<path d="M4340 660 c-800 -115 -1686 -241 -1967 -281 -406 -57 -513 -75 -513
-87 0 -11 8 -13 33 -8 17 3 889 127 1937 276 1048 148 1935 275 1973 281 72
12 91 30 30 28 -21 0 -693 -95 -1493 -209z"/>
</g>
</svg>
