<?xml version="1.0" standalone="no"?>
<!DOCTYPE svg PUBLIC "-//W3C//DTD SVG 20010904//EN"
 "http://www.w3.org/TR/2001/REC-SVG-20010904/DTD/svg10.dtd">
<svg version="1.0" xmlns="http://www.w3.org/2000/svg"
 width="626.000000pt" height="376.000000pt" viewBox="0 0 626.000000 376.000000"
 preserveAspectRatio="xMidYMid meet">

<g transform="translate(0.000000,376.000000) scale(0.100000,-0.100000)"
fill="#000000" stroke="none">
<path d="M3670 3348 c-93 -25 -173 -67 -191 -100 l-11 -21 -19 24 c-23 31 -38
18 -49 -43 -12 -63 3 -118 40 -149 28 -24 30 -29 20 -55 -28 -73 74 -611 122
-640 5 -3 14 -2 20 4 8 8 3 36 -16 94 -27 85 -86 401 -86 463 0 19 5 45 11 59
9 20 9 29 -1 41 -16 19 -9 26 47 51 42 18 213 36 274 28 68 -9 86 -32 91 -118
4 -65 6 -70 41 -99 55 -43 71 -80 70 -159 -1 -38 1 -68 3 -68 2 0 13 19 25 43
12 23 30 54 41 69 17 24 22 26 41 17 44 -23 127 -101 127 -119 0 -15 -16 -63
-26 -79 -2 -1 -29 13 -61 33 -56 35 -115 47 -127 27 -3 -5 -26 -12 -50 -15
-50 -8 -71 -26 -62 -54 4 -12 1 -22 -8 -25 -8 -3 -19 -15 -25 -26 -16 -28 7
-47 67 -55 30 -4 56 -14 67 -26 18 -20 17 -20 -32 -20 -61 0 -110 -16 -123
-40 -16 -30 -12 -40 21 -54 l31 -13 -33 -26 c-56 -42 -135 -77 -175 -77 -45 0
-95 35 -114 79 -14 35 -18 36 -66 16 -112 -46 -176 -147 -314 -490 -125 -312
-168 -384 -267 -450 -49 -32 -54 -39 -41 -51 20 -20 52 -11 110 31 79 58 142
148 232 330 78 159 128 235 155 235 25 0 59 -53 81 -127 37 -124 21 -229 -71
-465 -60 -152 -112 -235 -188 -294 -83 -65 -148 -87 -241 -81 -74 5 -238 41
-253 56 -4 5 22 27 58 51 108 70 139 122 93 154 -30 21 -51 20 -98 -4 -49 -25
-70 -25 -70 -1 0 25 64 78 104 87 69 14 74 51 14 95 -62 45 -113 69 -147 69
-28 0 -47 -22 -35 -41 3 -5 -6 -13 -20 -18 -13 -6 -27 -19 -31 -30 -3 -11 -16
-21 -28 -23 -12 -2 -28 -16 -37 -33 -12 -24 -21 -29 -42 -27 -48 6 -72 -59
-47 -125 14 -39 52 -76 126 -124 35 -23 62 -44 59 -46 -3 -3 -55 7 -116 22
-110 26 -112 26 -191 10 -45 -9 -83 -14 -86 -11 -6 6 -47 149 -194 686 -45
162 -84 298 -88 301 -6 6 -870 -46 -875 -53 -5 -7 179 -778 186 -778 3 0 66
77 140 172 139 179 245 298 266 298 34 0 -6 -151 -124 -474 -90 -243 -110
-326 -80 -326 30 0 116 91 293 312 167 209 204 250 190 216 -147 -385 -207
-612 -171 -648 15 -15 53 4 123 65 113 97 221 154 291 155 l35 0 59 -224 c33
-124 63 -230 67 -237 11 -19 584 90 847 161 133 36 89 32 -63 -5 -135 -33
-616 -127 -721 -141 -45 -5 -53 -4 -58 12 -3 11 -28 107 -56 214 -62 238 -63
240 -95 240 -75 0 -202 -65 -319 -162 -37 -32 -72 -58 -77 -58 -5 0 -13 9 -19
20 -20 37 21 191 116 449 55 147 63 181 42 181 -17 0 -70 -59 -222 -250 -150
-187 -234 -280 -255 -280 -19 0 -8 39 89 305 113 309 150 444 131 474 -27 42
-120 -48 -306 -293 -60 -79 -112 -145 -115 -145 -6 -1 -170 695 -170 722 0 12
8 17 28 17 15 0 202 11 417 25 214 14 392 21 395 17 4 -4 67 -225 140 -492 73
-267 136 -489 141 -494 4 -5 44 0 91 11 l83 19 150 -36 c126 -30 160 -43 210
-76 52 -34 81 -44 210 -73 173 -38 357 -95 375 -116 6 -8 8 -20 4 -27 -6 -9
-3 -9 9 1 16 13 16 15 1 32 -29 32 -263 104 -484 148 -32 7 -68 22 -85 37 -17
14 -23 23 -14 21 9 -3 95 -26 190 -50 330 -86 469 -142 469 -190 0 -53 -48
-76 -285 -137 -312 -82 -671 -151 -780 -152 -93 0 -330 87 -780 288 l-230 102
-17 84 c-10 45 -25 116 -34 156 l-15 72 -380 0 c-246 0 -379 -4 -379 -10 0 -6
132 -10 375 -10 206 0 375 -3 375 -7 1 -27 60 -287 67 -294 12 -12 298 -141
499 -224 290 -122 449 -175 521 -175 157 0 887 166 1023 233 50 25 74 73 50
101 -41 50 -199 108 -524 191 l-219 57 -104 69 c-119 80 -145 113 -141 179 3
42 5 45 32 45 26 0 30 -5 41 -48 14 -55 36 -83 59 -74 26 10 19 59 -15 100
-23 28 -29 44 -25 62 10 39 42 33 50 -9 8 -42 62 -104 77 -89 15 15 4 44 -31
88 -17 21 -30 48 -30 60 0 29 31 43 45 19 22 -36 57 -74 71 -74 25 0 15 25
-26 65 -41 40 -51 71 -26 81 20 8 126 -50 161 -86 l28 -29 -29 -11 c-78 -31
-113 -54 -130 -85 -15 -28 -16 -36 -5 -49 18 -21 34 -20 81 4 47 24 73 25 90
5 22 -26 -3 -58 -89 -116 -49 -33 -80 -60 -78 -69 3 -19 126 -55 241 -71 71
-10 90 -9 142 6 105 30 206 112 267 216 35 60 123 291 143 375 40 175 -8 382
-91 392 -47 6 -99 -63 -171 -228 -84 -193 -244 -382 -311 -368 -13 3 -7 10 23
26 55 28 118 101 161 186 19 39 75 169 125 290 104 256 136 321 194 385 49 54
134 104 141 83 9 -25 56 -73 86 -88 53 -28 128 -4 257 83 16 11 11 2 -15 -26
-48 -51 -77 -67 -145 -82 -27 -6 -50 -13 -50 -17 0 -13 65 -120 97 -159 61
-76 96 -69 169 33 25 36 48 64 49 62 69 -78 98 -121 111 -165 9 -29 17 -53 19
-53 15 0 240 154 239 163 -1 7 -9 38 -18 70 -8 32 -18 93 -22 135 -5 72 -17
131 -31 169 -6 14 1 15 53 10 139 -14 373 -117 459 -201 65 -64 95 -122 128
-251 104 -401 120 -656 51 -801 -21 -46 -69 -104 -77 -93 -2 2 -18 51 -37 108
-50 155 -107 264 -186 356 -38 44 -90 112 -115 150 -53 79 -159 267 -159 281
0 5 -4 15 -9 23 -7 11 -32 1 -123 -47 -63 -34 -121 -69 -130 -79 -26 -30 -29
-70 -13 -141 75 -321 291 -623 503 -702 68 -26 164 -28 218 -5 20 8 39 14 41
12 9 -9 50 -213 44 -219 -5 -5 -1301 148 -1307 155 -1 1 -20 69 -43 151 -45
159 -97 296 -113 296 -5 0 -8 -3 -6 -7 31 -61 53 -119 83 -223 21 -69 44 -150
54 -180 l16 -55 305 -36 c168 -21 440 -54 605 -74 165 -20 328 -40 363 -44 35
-4 64 -5 66 -2 2 3 -9 62 -24 130 l-27 124 32 32 c66 67 95 168 95 332 0 126
-18 250 -71 476 -48 207 -79 276 -157 348 -99 91 -324 188 -459 197 -40 2 -73
8 -73 12 0 4 -12 24 -26 45 l-26 39 18 53 c15 44 16 57 6 73 -7 11 -12 25 -12
32 0 32 -23 90 -42 108 -18 16 -19 20 -6 20 35 0 37 217 3 327 -15 51 -61 103
-91 103 -8 0 -35 15 -61 33 -76 54 -127 69 -238 73 -81 3 -116 0 -185 -18z
m306 -14 c27 -7 70 -28 95 -46 24 -18 60 -38 79 -43 71 -21 100 -105 100 -285
l0 -110 -26 0 c-32 0 -66 -18 -59 -31 4 -5 19 -9 36 -9 22 0 34 -8 49 -32 11
-18 20 -41 20 -51 0 -14 -12 -8 -52 28 -80 70 -109 70 -145 1 l-16 -31 -12 58
c-10 48 -20 66 -60 107 -48 49 -49 52 -53 119 -6 96 -17 105 -138 109 -116 5
-215 -11 -274 -44 l-45 -25 -32 35 c-27 29 -33 44 -33 80 0 78 18 98 40 46 15
-36 30 -39 30 -6 0 52 75 100 206 130 121 28 190 28 290 0z m-484 -391 c-5
-91 35 -343 74 -465 27 -85 31 -116 9 -77 -45 82 -120 520 -101 593 13 52 23
24 18 -51z m676 -330 c54 -31 115 -93 132 -133 11 -27 10 -31 -19 -56 -37 -30
-40 -65 -16 -168 16 -68 12 -116 -10 -116 -7 0 -29 14 -50 30 -44 35 -82 38
-118 10 -14 -11 -27 -20 -30 -20 -3 0 -8 38 -12 85 -4 47 -12 88 -17 91 -5 3
-36 8 -69 11 -66 6 -76 21 -32 50 18 12 47 18 90 18 38 0 63 4 63 11 0 18 -40
54 -68 59 -98 21 -115 36 -61 59 35 15 47 12 161 -38 36 -15 57 -9 43 14 -13
21 -85 50 -123 50 -47 0 -85 24 -62 40 23 15 86 12 101 -6 20 -24 108 -66 132
-62 21 3 21 4 -7 31 -16 15 -51 35 -78 45 -26 9 -48 21 -48 25 0 14 50 -1 98
-30z m117 -2 c-4 -17 -11 -31 -17 -31 -6 0 -7 8 -3 18 4 9 10 25 12 35 9 29
15 11 8 -22z m-114 -37 c6 -8 9 -14 7 -14 -10 0 -68 32 -73 40 -9 14 52 -10
66 -26z m-56 -44 c3 -6 -1 -7 -9 -4 -18 7 -21 14 -7 14 6 0 13 -4 16 -10z
m223 -137 c6 -21 16 -83 21 -138 6 -55 17 -122 26 -150 8 -27 15 -51 15 -52 0
-3 -207 -133 -213 -133 -3 0 -12 18 -18 41 -7 22 -29 59 -49 82 -71 80 -72
100 -8 133 31 16 52 9 111 -38 58 -46 83 23 52 144 -18 71 -13 112 18 133 30
21 32 20 45 -22z m-314 -95 c3 -18 8 -63 11 -99 5 -64 4 -67 -31 -115 -59 -78
-86 -104 -110 -104 -27 0 -71 50 -113 130 l-31 57 36 6 c62 10 121 46 169 103
26 29 50 54 55 54 5 0 11 -15 14 -32z m463 -401 c67 -132 154 -263 237 -357
77 -87 131 -190 183 -352 41 -126 41 -127 -42 -149 -179 -49 -436 154 -575
454 -82 179 -118 330 -88 371 12 15 208 131 228 135 3 0 28 -45 57 -102z
m-1813 -632 c9 -13 16 -27 16 -31 0 -10 -30 17 -41 38 -15 27 6 22 25 -7z
m-82 -37 c25 -38 31 -68 15 -68 -15 0 -37 41 -37 70 0 26 4 25 22 -2z"/>
<path d="M3525 1300 c9 -77 63 -342 72 -351 4 -4 208 -37 453 -73 245 -36 582
-86 750 -110 168 -25 439 -65 603 -89 163 -24 297 -41 297 -37 0 10 65 0
-1060 165 -547 80 -1004 150 -1016 154 -15 7 -24 24 -32 63 -45 212 -72 325
-67 278z"/>
<path d="M3330 680 c-8 -5 -10 -10 -5 -10 6 0 17 5 25 10 8 5 11 10 5 10 -5 0
-17 -5 -25 -10z"/>
</g>
</svg>
