<svg width="40" height="40" viewBox="0 0 40 40" fill="none" xmlns="http://www.w3.org/2000/svg">
<path fill-rule="evenodd" clip-rule="evenodd" d="M20 0C21.1835 0 22.1429 0.95939 22.1429 2.14286V17.8571H37.8571C39.0406 17.8571 40 18.8165 40 20C40 21.1835 39.0406 22.1429 37.8571 22.1429H22.1429V37.8571C22.1429 39.0406 21.1835 40 20 40C18.8165 40 17.8571 39.0406 17.8571 37.8571V22.1429H2.14286C0.95939 22.1429 0 21.1835 0 20C0 18.8165 0.95939 17.8571 2.14286 17.8571H17.8571V2.14286C17.8571 0.95939 18.8165 0 20 0Z" fill="#57CA62"/>
</svg>
