<svg width="47" height="47" viewBox="0 0 47 47" fill="none" xmlns="http://www.w3.org/2000/svg">
<path d="M29.3743 41.125V37.2083C29.3743 35.1308 28.5491 33.1384 27.08 31.6693C25.611 30.2003 23.6185 29.375 21.541 29.375H11.7493C9.67182 29.375 7.67938 30.2003 6.21035 31.6693C4.74131 33.1384 3.91602 35.1308 3.91602 37.2083V41.125" stroke="#2563EB" stroke-width="4" stroke-linecap="round" stroke-linejoin="round"/>
<path d="M16.6458 21.5417C20.9721 21.5417 24.4792 18.0346 24.4792 13.7083C24.4792 9.3821 20.9721 5.875 16.6458 5.875C12.3196 5.875 8.8125 9.3821 8.8125 13.7083C8.8125 18.0346 12.3196 21.5417 16.6458 21.5417Z" stroke="#2563EB" stroke-width="4" stroke-linecap="round" stroke-linejoin="round"/>
<path d="M37.208 15.6667V27.4167" stroke="#2563EB" stroke-width="4" stroke-linecap="round" stroke-linejoin="round"/>
<path d="M43.084 21.5417H31.334" stroke="#2563EB" stroke-width="4" stroke-linecap="round" stroke-linejoin="round"/>
</svg>
