<svg width="38" height="40" viewBox="0 0 38 40" fill="none" xmlns="http://www.w3.org/2000/svg">
<path d="M10.3907 2.45784e-10C11.2968 1.55144e-05 12.0313 0.734482 12.0313 1.64048L12.0312 4.92137C12.0312 5.82737 11.2967 6.56181 10.3906 6.56179C9.4845 6.56178 8.74998 5.82731 8.75 4.92132L8.75006 1.64042C8.75007 0.734425 9.48462 -1.55139e-05 10.3907 2.45784e-10Z" fill="#2563EB"/>
<path d="M24.6095 2.45784e-10C25.5156 1.55144e-05 26.2501 0.734482 26.2501 1.64048L26.25 4.92137C26.25 5.82737 25.5154 6.56181 24.6093 6.56179C23.7033 6.56178 22.9687 5.82731 22.9688 4.92132L22.9688 1.64042C22.9688 0.734425 23.7034 -1.55139e-05 24.6095 2.45784e-10Z" fill="#2563EB"/>
<path d="M0 8.20602C0 4.88404 2.69329 2.19104 6.01562 2.19104C6.92172 2.19104 7.65625 2.9255 7.65625 3.83149C7.65625 4.73749 6.92172 5.47194 6.01562 5.47194C4.50547 5.47194 3.28125 6.69603 3.28125 8.20602V13.1236V28.985C3.28125 30.495 4.50547 31.7191 6.01563 31.7191H28.9844C30.4945 31.7191 31.7188 30.495 31.7188 28.985V13.1236V8.20602C31.7188 6.69603 30.4945 5.47194 28.9844 5.47194C28.0783 5.47194 27.3438 4.73749 27.3438 3.83149C27.3438 2.9255 28.0783 2.19104 28.9844 2.19104C32.3067 2.19104 35 4.88404 35 8.20602V28.985C35 32.307 32.3067 35 28.9844 35H6.01563C2.69329 35 0 32.307 0 28.985V8.20602Z" fill="#2563EB"/>
<path d="M13.125 3.83149C13.125 2.9255 13.8595 2.19104 14.7656 2.19104H20.2344C21.1405 2.19104 21.875 2.9255 21.875 3.83149C21.875 4.73749 21.1405 5.47194 20.2344 5.47194H14.7656C13.8595 5.47194 13.125 4.73749 13.125 3.83149Z" fill="#2563EB"/>
<path d="M10.9375 19.687C10.9375 20.896 9.95812 21.876 8.75 21.876C7.54188 21.876 6.5625 20.896 6.5625 19.687C6.5625 18.4781 7.54188 17.4981 8.75 17.4981C9.95812 17.4981 10.9375 18.4781 10.9375 19.687Z" fill="#2563EB"/>
<path d="M8.75 28.436C9.95812 28.436 10.9375 27.456 10.9375 26.2471C10.9375 25.0382 9.95812 24.0582 8.75 24.0582C7.54188 24.0582 6.5625 25.0382 6.5625 26.2471C6.5625 27.456 7.54188 28.436 8.75 28.436Z" fill="#2563EB"/>
<path d="M17.5 21.876C18.7081 21.876 19.6875 20.896 19.6875 19.687C19.6875 18.4781 18.7081 17.4981 17.5 17.4981C16.2919 17.4981 15.3125 18.4781 15.3125 19.687C15.3125 20.896 16.2919 21.876 17.5 21.876Z" fill="#2563EB"/>
<path d="M19.6875 26.2471C19.6875 27.456 18.7081 28.436 17.5 28.436C16.2919 28.436 15.3125 27.456 15.3125 26.2471C15.3125 25.0382 16.2919 24.0582 17.5 24.0582C18.7081 24.0582 19.6875 25.0382 19.6875 26.2471Z" fill="#2563EB"/>
<path d="M28.4375 19.687C28.4375 20.896 27.4581 21.876 26.25 21.876C25.0419 21.876 24.0625 20.896 24.0625 19.687C24.0625 18.4781 25.0419 17.4981 26.25 17.4981C27.4581 17.4981 28.4375 18.4781 28.4375 19.687Z" fill="#2563EB"/>
<path d="M2 12L32 12" stroke="#2563EB" stroke-width="2"/>
<path fill-rule="evenodd" clip-rule="evenodd" d="M37.7132 30.8001L30.2868 23.2919C29.67 22.6684 28.6154 23.11 28.6154 23.9918V27.5409H28.6131C21.8846 27.542 18.709 32.1035 17.0512 36.9485C16.7064 37.9561 18.1852 38.7251 19.0342 38.0925C20.9817 36.6414 23.2839 35.8411 26.1679 35.5678C26.9406 35.4945 27.755 35.4591 28.6154 35.4591V39.0082C28.6154 39.89 29.67 40.3317 30.2868 39.7081L37.7132 32.1999C38.0956 31.8133 38.0956 31.1866 37.7132 30.8001Z" fill="#FFCB66"/>
</svg>
