<svg width="48" height="29" viewBox="0 0 48 29" fill="none" xmlns="http://www.w3.org/2000/svg">
<path d="M36.3254 11.8432L30.8929 16.5816L32.5203 23.6361C32.6064 24.0049 32.5818 24.3909 32.4496 24.7458C32.3174 25.1007 32.0835 25.4088 31.7771 25.6315C31.4706 25.8543 31.1053 25.9818 30.7267 25.9982C30.3482 26.0146 29.9732 25.919 29.6486 25.7236L23.4922 21.9916L17.349 25.7236C17.0244 25.919 16.6494 26.0146 16.2709 25.9982C15.8923 25.9818 15.527 25.8543 15.2205 25.6315C14.9141 25.4088 14.6802 25.1007 14.548 24.7458C14.4158 24.3909 14.3912 24.0049 14.4773 23.6361L16.1023 16.5888L10.6686 11.8432C10.3812 11.5955 10.1733 11.2685 10.0712 10.9032C9.96899 10.5379 9.977 10.1506 10.0942 9.78982C10.2114 9.42906 10.4325 9.11091 10.7299 8.87527C11.0273 8.63962 11.3877 8.49698 11.7659 8.46522L18.9281 7.84523L21.7239 1.18073C21.8699 0.831036 22.1162 0.532327 22.4317 0.322219C22.7472 0.112112 23.1178 0 23.497 0C23.8761 0 24.2468 0.112112 24.5623 0.322219C24.8778 0.532327 25.1241 0.831036 25.2701 1.18073L28.0743 7.84523L35.2341 8.46522C35.6123 8.49698 35.9727 8.63962 36.2701 8.87527C36.5675 9.11091 36.7886 9.42906 36.9058 9.78982C37.023 10.1506 37.031 10.5379 36.9288 10.9032C36.8267 11.2685 36.6188 11.5955 36.3314 11.8432H36.3254Z" fill="#FFCB66"/>
<path d="M47.6752 21.9216L45.0596 24.2908L45.8431 27.8181C45.8846 28.0024 45.8727 28.1954 45.8091 28.3729C45.7454 28.5503 45.6328 28.7044 45.4853 28.8158C45.3377 28.9271 45.1618 28.9909 44.9795 28.9991C44.7973 29.0073 44.6167 28.9595 44.4604 28.8618L41.4962 26.9958L38.5384 28.8618C38.3821 28.9595 38.2016 29.0073 38.0193 28.9991C37.837 28.9909 37.6611 28.9271 37.5136 28.8158C37.366 28.7044 37.2534 28.5503 37.1898 28.3729C37.1261 28.1954 37.1143 28.0024 37.1558 27.8181L37.9381 24.2944L35.3219 21.9216C35.1835 21.7977 35.0835 21.6342 35.0343 21.4516C34.9851 21.2689 34.9889 21.0753 35.0454 20.8949C35.1018 20.7145 35.2083 20.5555 35.3514 20.4376C35.4946 20.3198 35.6682 20.2485 35.8502 20.2326L39.2987 19.9226L40.6448 16.5904C40.7151 16.4155 40.8337 16.2662 40.9856 16.1611C41.1375 16.0561 41.316 16 41.4986 16C41.6811 16 41.8596 16.0561 42.0115 16.1611C42.1634 16.2662 42.282 16.4155 42.3523 16.5904L43.7024 19.9226L47.1498 20.2326C47.3318 20.2485 47.5054 20.3198 47.6486 20.4376C47.7917 20.5555 47.8982 20.7145 47.9547 20.8949C48.0111 21.0753 48.0149 21.2689 47.9657 21.4516C47.9165 21.6342 47.8165 21.7977 47.6781 21.9216H47.6752Z" fill="#FFCB66"/>
<path d="M12.6752 21.9216L10.0596 24.2908L10.8431 27.8181C10.8846 28.0024 10.8727 28.1954 10.8091 28.3729C10.7454 28.5503 10.6328 28.7044 10.4853 28.8158C10.3377 28.9271 10.1618 28.9909 9.97953 28.9991C9.79726 29.0073 9.61671 28.9595 9.46045 28.8618L6.49623 26.9958L3.5384 28.8618C3.38214 28.9595 3.20158 29.0073 3.01931 28.9991C2.83704 28.9909 2.66113 28.9271 2.51359 28.8158C2.36605 28.7044 2.25341 28.5503 2.18977 28.3729C2.12612 28.1954 2.11429 28.0024 2.15575 27.8181L2.93813 24.2944L0.321895 21.9216C0.18352 21.7977 0.0834599 21.6342 0.0342634 21.4516C-0.0149331 21.2689 -0.0110763 21.0753 0.0453501 20.8949C0.101776 20.7145 0.208261 20.5555 0.351449 20.4376C0.494638 20.3198 0.668156 20.2485 0.850245 20.2326L4.29873 19.9226L5.64484 16.5904C5.71513 16.4155 5.8337 16.2662 5.98562 16.1611C6.13753 16.0561 6.316 16 6.49855 16C6.6811 16 6.85957 16.0561 7.01148 16.1611C7.1634 16.2662 7.28197 16.4155 7.35226 16.5904L8.70243 19.9226L12.1498 20.2326C12.3318 20.2485 12.5054 20.3198 12.6486 20.4376C12.7917 20.5555 12.8982 20.7145 12.9547 20.8949C13.0111 21.0753 13.0149 21.2689 12.9657 21.4516C12.9165 21.6342 12.8165 21.7977 12.6781 21.9216H12.6752Z" fill="#FFCB66"/>
</svg>
