<svg width="70" height="40" viewBox="0 0 70 40" fill="none" xmlns="http://www.w3.org/2000/svg">
<g filter="url(#filter0_d_1069_1537)">
<path d="M18.0147 22.0745L15.5126 25.9523L17.6962 30.1425C17.8109 30.3614 17.8613 30.6092 17.841 30.8549C17.8206 31.1006 17.7305 31.3333 17.5818 31.5239C17.4332 31.7145 17.2326 31.8546 17.0051 31.9266C16.7776 31.9987 16.5334 31.9995 16.303 31.9289L11.9272 30.5752L8.82261 33.9332C8.65831 34.1096 8.44641 34.231 8.21341 34.2824C7.98041 34.3337 7.73663 34.3127 7.51257 34.222C7.28851 34.1312 7.0941 33.9748 6.95364 33.7721C6.81319 33.5695 6.73293 33.3298 6.72289 33.0828L6.51853 28.3672L2.4108 26.2555C2.19409 26.1459 2.01236 25.9732 1.8884 25.7592C1.76444 25.5451 1.70377 25.2992 1.71399 25.0523C1.72422 24.8053 1.80488 24.5683 1.94587 24.371C2.08686 24.1738 2.2819 24.0249 2.50652 23.9433L6.75751 22.3845L7.33 17.7199C7.35961 17.4752 7.45883 17.2464 7.61517 17.0623C7.7715 16.8782 7.97796 16.747 8.20854 16.6852C8.43912 16.6234 8.68352 16.6338 8.91097 16.7151C9.13841 16.7964 9.33873 16.9449 9.4867 17.142L12.32 20.8941L16.7793 20.1189C17.0147 20.0773 17.258 20.1087 17.4788 20.209C17.6995 20.3094 17.8878 20.4743 18.0202 20.683C18.1525 20.8918 18.2229 21.1351 18.2226 21.3824C18.2223 21.6298 18.1512 21.8702 18.0183 22.0735L18.0147 22.0745Z" fill="white"/>
<path d="M17.4169 21.6177L17.3845 21.6678L14.8824 25.5457L14.646 25.9122L14.8475 26.2989L17.031 30.4891L17.0319 30.4909C17.0808 30.584 17.1021 30.6896 17.0935 30.793C17.085 30.8963 17.0475 30.9895 16.9904 31.0627C16.9337 31.1354 16.8596 31.186 16.7787 31.2116C16.698 31.2372 16.6097 31.2383 16.5233 31.212C16.5231 31.2119 16.5228 31.2118 16.5225 31.2118L12.1489 29.8587L11.6973 29.719L11.3765 30.066L8.27388 33.422C8.27359 33.4223 8.2733 33.4226 8.27301 33.4229C8.21142 33.4886 8.13446 33.5318 8.05199 33.5499C7.96909 33.5682 7.87966 33.5615 7.79411 33.5268C7.70817 33.492 7.62906 33.43 7.57002 33.3449C7.51088 33.2595 7.47654 33.1575 7.47227 33.0524L7.47219 33.0504L7.26783 28.3347L7.24896 27.8994L6.86143 27.7001L2.75369 25.5885L2.7537 25.5885L2.74933 25.5863C2.6649 25.5436 2.58995 25.474 2.53743 25.3833C2.48483 25.2925 2.45903 25.1877 2.46335 25.0833C2.46767 24.979 2.50156 24.8834 2.55607 24.8071C2.61032 24.7312 2.68281 24.6772 2.76285 24.6481L2.76472 24.6474L7.0157 23.0887L7.44608 22.9309L7.50192 22.4759L8.07441 17.8112L8.07456 17.81C8.0869 17.7081 8.12766 17.6175 8.18687 17.5478C8.24579 17.4784 8.32114 17.4315 8.40265 17.4096C8.48417 17.3878 8.57285 17.3907 8.65858 17.4214C8.74472 17.4521 8.8253 17.5102 8.88695 17.5923L8.88818 17.5939L11.7214 21.346L11.9973 21.7114L12.4484 21.633L16.9078 20.8578L16.9098 20.8574C16.9936 20.8426 17.0834 20.8532 17.1683 20.8918C17.2537 20.9306 17.3309 20.9965 17.3867 21.0846C17.4427 21.1728 17.4727 21.2765 17.4726 21.3815C17.4725 21.467 17.4524 21.5478 17.4169 21.6177Z" stroke="black" stroke-width="1.5"/>
</g>
<g filter="url(#filter1_d_1069_1537)">
<path d="M48.3004 12.7542L42.6667 17.8571L44.3543 25.4543C44.4436 25.8514 44.4182 26.2671 44.2811 26.6493C44.144 27.0315 43.9014 27.3633 43.5836 27.6032C43.2658 27.8431 42.887 27.9804 42.4944 27.9981C42.1018 28.0157 41.7129 27.9128 41.3763 27.7023L34.9919 23.6833L28.6212 27.7023C28.2846 27.9128 27.8957 28.0157 27.5031 27.9981C27.1105 27.9804 26.7317 27.8431 26.4139 27.6032C26.0961 27.3633 25.8535 27.0315 25.7164 26.6493C25.5793 26.2671 25.5539 25.8514 25.6432 25.4543L27.3283 17.8648L21.6933 12.7542C21.3953 12.4875 21.1798 12.1353 21.0738 11.7419C20.9678 11.3485 20.9761 10.9314 21.0977 10.5429C21.2192 10.1544 21.4486 9.81175 21.757 9.55798C22.0654 9.30421 22.4391 9.15059 22.8313 9.11639L30.2588 8.44871L33.1581 1.27156C33.3095 0.894962 33.5649 0.573275 33.8921 0.347006C34.2193 0.120736 34.6037 0 34.9969 0C35.3901 0 35.7745 0.120736 36.1017 0.347006C36.4289 0.573275 36.6842 0.894962 36.8356 1.27156L39.7437 8.44871L47.1687 9.11639C47.5609 9.15059 47.9346 9.30421 48.243 9.55798C48.5514 9.81175 48.7808 10.1544 48.9023 10.5429C49.0239 10.9314 49.0322 11.3485 48.9262 11.7419C48.8202 12.1353 48.6047 12.4875 48.3067 12.7542H48.3004Z" fill="white"/>
<path d="M47.7104 11.9394L47.6291 12.0131L41.9954 17.1159L41.5644 17.5063L41.6905 18.0739L43.3781 25.6711L43.3787 25.6736C43.4265 25.8861 43.4126 26.1086 43.3398 26.3117C43.267 26.5146 43.1403 26.6849 42.9811 26.8051C42.8224 26.9249 42.6374 26.9906 42.4495 26.9991C42.2622 27.0075 42.074 26.9589 41.9079 26.8553C41.9074 26.855 41.907 26.8547 41.9066 26.8545L35.5246 22.837L34.9913 22.5013L34.4583 22.8375L28.0909 26.8545C28.0904 26.8548 28.09 26.8551 28.0895 26.8553C27.9234 26.9589 27.7353 27.0075 27.548 26.9991C27.3601 26.9906 27.1751 26.9249 27.0164 26.8051C26.8572 26.6849 26.7305 26.5146 26.6577 26.3117C26.5849 26.1086 26.571 25.8861 26.6188 25.6736L26.6194 25.671L28.3045 18.0816L28.4304 17.5144L28.0001 17.1241L22.3651 12.0135L22.3651 12.0135L22.3603 12.0091C22.2095 11.8742 22.0959 11.6917 22.0394 11.4818C21.9828 11.2717 21.9873 11.0484 22.0521 10.8414C22.1168 10.6347 22.2371 10.4579 22.3924 10.3302C22.5472 10.2028 22.7304 10.129 22.9182 10.1126L22.9208 10.1124L30.3483 9.4447L30.9571 9.38998L31.186 8.82327L34.0853 1.64612L34.0859 1.64458C34.1658 1.44582 34.2982 1.28197 34.4609 1.1695C34.623 1.05736 34.8095 1 34.9969 1C35.1843 1 35.3707 1.05736 35.5329 1.1695C35.6955 1.28197 35.8279 1.44582 35.9078 1.64458L35.9088 1.64709L38.8169 8.82424L39.0461 9.39002L39.6541 9.44469L47.0791 10.1124L47.0818 10.1126C47.2696 10.129 47.4528 10.2028 47.6076 10.3302C47.7629 10.4579 47.8832 10.6347 47.9479 10.8414C48.0127 11.0484 48.0172 11.2717 47.9606 11.4818C47.9133 11.6575 47.826 11.8139 47.7104 11.9394Z" stroke="black" stroke-width="2"/>
</g>
<g filter="url(#filter2_d_1069_1537)">
<path d="M67.4062 25.7698L63.3004 27.8771L63.0963 32.5977C63.0862 32.8446 63.006 33.0844 62.8655 33.287C62.7251 33.4896 62.5307 33.6461 62.3066 33.7368C62.0825 33.8276 61.8388 33.8486 61.6058 33.7972C61.3728 33.7459 61.1609 33.6244 60.9966 33.4481L57.8839 30.0879L53.5162 31.4437C53.2858 31.5143 53.0415 31.5135 52.8141 31.4415C52.5866 31.3695 52.386 31.2294 52.2373 31.0388C52.0887 30.8481 51.9985 30.6154 51.9782 30.3698C51.9579 30.1241 52.0082 29.8763 52.123 29.6574L54.3039 25.4713L51.8023 21.5887C51.6694 21.3854 51.5984 21.145 51.5981 20.8977C51.5977 20.6503 51.6682 20.407 51.8005 20.1983C51.9328 19.9895 52.1211 19.8246 52.3419 19.7243C52.5626 19.6239 52.8059 19.5926 53.0413 19.6341L57.5021 20.4097L60.3303 16.6562C60.4782 16.4592 60.6786 16.3107 60.906 16.2294C61.1335 16.1481 61.3779 16.1377 61.6084 16.1995C61.839 16.2613 62.0455 16.3925 62.2018 16.5766C62.3581 16.7607 62.4574 16.9895 62.487 17.2341L63.0646 21.9002L67.3141 23.4585C67.5387 23.5402 67.7338 23.689 67.8748 23.8863C68.0158 24.0836 68.0964 24.3206 68.1066 24.5675C68.1169 24.8144 68.0562 25.0604 67.9322 25.2744C67.8083 25.4885 67.6266 25.6611 67.4098 25.7708L67.4062 25.7698Z" fill="white"/>
<path d="M67.1169 25.0753L67.0637 25.1025L62.9579 27.2098L62.5699 27.409L62.5511 27.8447L62.347 32.5653L62.3469 32.5672C62.3426 32.6723 62.3083 32.7744 62.2492 32.8597C62.1901 32.9449 62.111 33.0069 62.0251 33.0417C61.9395 33.0763 61.8501 33.0831 61.7672 33.0648C61.6846 33.0466 61.6075 33.0034 61.5459 32.9374C61.5457 32.9372 61.5455 32.937 61.5453 32.9368L58.4341 29.5782L58.1129 29.2315L57.6616 29.3716L53.2966 30.7266C53.2962 30.7267 53.2958 30.7269 53.2954 30.727C53.2092 30.7531 53.121 30.752 53.0405 30.7265C52.9596 30.7009 52.8855 30.6503 52.8287 30.5775C52.7717 30.5044 52.7342 30.4112 52.7256 30.3079C52.7171 30.2044 52.7384 30.0989 52.7872 30.0057L52.7882 30.0039L54.969 25.8179L55.1703 25.4314L54.9343 25.0651L52.4328 21.1825L52.4328 21.1825L52.4301 21.1784C52.3783 21.0992 52.3482 21.0015 52.3481 20.8967C52.3479 20.7917 52.378 20.6881 52.4339 20.5998C52.4898 20.5117 52.567 20.4458 52.6523 20.407C52.7372 20.3684 52.827 20.3579 52.9109 20.3727L52.9129 20.373L57.3737 21.1486L57.8253 21.2272L58.1011 20.861L60.9293 17.1076L60.93 17.1066C60.9917 17.0245 61.0723 16.9664 61.1584 16.9356C61.2441 16.905 61.3328 16.9021 61.4143 16.9239C61.4958 16.9458 61.5712 16.9926 61.6301 17.062C61.6893 17.1317 61.7301 17.2223 61.7424 17.3243L61.7427 17.3263L62.3203 21.9923L62.3765 22.4467L62.8064 22.6043L67.0559 24.1627L67.0578 24.1633C67.1378 24.1925 67.2103 24.2465 67.2646 24.3224C67.3191 24.3986 67.353 24.4943 67.3573 24.5985C67.3616 24.7029 67.3358 24.8077 67.2832 24.8986C67.2403 24.9726 67.1825 25.0325 67.1169 25.0753Z" stroke="black" stroke-width="1.5"/>
</g>
<defs>
<filter id="filter0_d_1069_1537" x="0.712891" y="16.6454" width="18.5098" height="22.6644" filterUnits="userSpaceOnUse" color-interpolation-filters="sRGB">
<feFlood flood-opacity="0" result="BackgroundImageFix"/>
<feColorMatrix in="SourceAlpha" type="matrix" values="0 0 0 0 0 0 0 0 0 0 0 0 0 0 0 0 0 0 127 0" result="hardAlpha"/>
<feOffset dy="4"/>
<feGaussianBlur stdDeviation="0.5"/>
<feComposite in2="hardAlpha" operator="out"/>
<feColorMatrix type="matrix" values="0 0 0 0 0 0 0 0 0 0 0 0 0 0 0 0 0 0 0.25 0"/>
<feBlend mode="normal" in2="BackgroundImageFix" result="effect1_dropShadow_1069_1537"/>
<feBlend mode="normal" in="SourceGraphic" in2="effect1_dropShadow_1069_1537" result="shape"/>
</filter>
<filter id="filter1_d_1069_1537" x="20" y="0" width="30" height="33" filterUnits="userSpaceOnUse" color-interpolation-filters="sRGB">
<feFlood flood-opacity="0" result="BackgroundImageFix"/>
<feColorMatrix in="SourceAlpha" type="matrix" values="0 0 0 0 0 0 0 0 0 0 0 0 0 0 0 0 0 0 127 0" result="hardAlpha"/>
<feOffset dy="4"/>
<feGaussianBlur stdDeviation="0.5"/>
<feComposite in2="hardAlpha" operator="out"/>
<feColorMatrix type="matrix" values="0 0 0 0 0 0 0 0 0 0 0 0 0 0 0 0 0 0 0.25 0"/>
<feBlend mode="normal" in2="BackgroundImageFix" result="effect1_dropShadow_1069_1537"/>
<feBlend mode="normal" in="SourceGraphic" in2="effect1_dropShadow_1069_1537" result="shape"/>
</filter>
<filter id="filter2_d_1069_1537" x="50.5981" y="16.1597" width="18.5098" height="22.665" filterUnits="userSpaceOnUse" color-interpolation-filters="sRGB">
<feFlood flood-opacity="0" result="BackgroundImageFix"/>
<feColorMatrix in="SourceAlpha" type="matrix" values="0 0 0 0 0 0 0 0 0 0 0 0 0 0 0 0 0 0 127 0" result="hardAlpha"/>
<feOffset dy="4"/>
<feGaussianBlur stdDeviation="0.5"/>
<feComposite in2="hardAlpha" operator="out"/>
<feColorMatrix type="matrix" values="0 0 0 0 0 0 0 0 0 0 0 0 0 0 0 0 0 0 0.25 0"/>
<feBlend mode="normal" in2="BackgroundImageFix" result="effect1_dropShadow_1069_1537"/>
<feBlend mode="normal" in="SourceGraphic" in2="effect1_dropShadow_1069_1537" result="shape"/>
</filter>
</defs>
</svg>
